<?xml version="1.0" encoding="UTF-8" standalone="no"?>
<!-- Created with Inkscape (http://www.inkscape.org/) -->

<svg
   width="210mm"
   height="210mm"
   viewBox="0 0 210 210"
   version="1.1"
   id="svg1"
   xml:space="preserve"
   inkscape:version="1.4 (86a8ad7, 2024-10-11)"
   sodipodi:docname="favicon.svg"
   xmlns:inkscape="http://www.inkscape.org/namespaces/inkscape"
   xmlns:sodipodi="http://sodipodi.sourceforge.net/DTD/sodipodi-0.dtd"
   xmlns="http://www.w3.org/2000/svg"
   xmlns:svg="http://www.w3.org/2000/svg"><sodipodi:namedview
     id="namedview1"
     pagecolor="#ffffff"
     bordercolor="#000000"
     borderopacity="0.25"
     inkscape:showpageshadow="2"
     inkscape:pageopacity="0.0"
     inkscape:pagecheckerboard="0"
     inkscape:deskcolor="#d1d1d1"
     inkscape:document-units="mm"
     inkscape:zoom="0.68862935"
     inkscape:cx="397.89184"
     inkscape:cy="558.35552"
     inkscape:window-width="1920"
     inkscape:window-height="991"
     inkscape:window-x="-9"
     inkscape:window-y="-9"
     inkscape:window-maximized="1"
     inkscape:current-layer="layer1" /><defs
     id="defs1" /><g
     inkscape:label="Layer 1"
     inkscape:groupmode="layer"
     id="layer1"><path
       style="fill:#272727;fill-opacity:1"
       d="m 100.72979,199.98292 c -13.250015,-0.79079 -27.089255,-4.70871 -39.422915,-11.16074 -10.26824,-5.37155 -15.56513,-9.12951 -23.24069,-16.48844 -10.87906,-10.4303 -20.43108,-25.44509 -25.16098,-39.5505 -5.4089795,-16.13053 -6.2367895,-33.992337 -2.37427,-51.229867 3.67772,-16.41282 11.75655,-31.883406 23.20423,-44.435004 6.49265,-7.118757 12.71106,-12.108918 21.09982,-16.932232 13.99143,-8.044705 27.43752,-12.1931488 44.17501,-13.6290608 9.351205,-0.802241 22.386335,0.390718 32.014595,2.929937 15.95854,4.2086748 28.11809,10.5139158 39.31458,20.3862698 12.30779,10.852231 22.68759,26.645627 27.90092,42.45267 2.75611,8.35664 4.10449,15.14018 4.75959,23.94479 0.9174,12.330087 -0.44119,23.599777 -4.29004,35.586457 -3.72025,11.58616 -11.00479,24.8658 -18.35984,33.46979 -8.7066,10.18505 -17.54647,17.40958 -28.5426,23.32691 -4.31314,2.32103 -12.6604,5.71527 -18.00449,7.32115 -4.2478,1.27645 -13.1857,3.07209 -17.91449,3.59905 -4.50269,0.50177 -10.76914,0.67077 -15.15843,0.40882 z m 13.49729,-10.75625 c 2.51145,-1.68011 38.78659,-38.03036 77.59344,-77.75409 1.99656,-2.04373 3.63011,-3.8937 3.63011,-4.11104 0,-0.21734 -0.33477,-0.79615 -0.74392,-1.28625 -0.60226,-0.72141 -0.87093,-0.85922 -1.41091,-0.72369 -1.18628,0.29773 -10.18191,8.94056 -24.03435,23.09172 -2.83514,2.89628 -17.34739,17.54372 -32.24944,32.54987 -14.90205,15.00615 -27.19807,27.46872 -27.32447,27.69459 -0.34012,0.60775 0.93131,1.51004 2.12782,1.51004 0.66563,0 1.40523,-0.29782 2.41172,-0.97115 z m -16.778135,-0.0444 c 1.74277,-1.26837 5.811545,-5.19156 20.075615,-19.35735 37.2239,-36.96739 78.19131,-78.194047 78.18966,-78.684427 -5.4e-4,-0.16153 -0.23498,-0.67744 -0.52096,-1.14648 -0.50558,-0.8292 -1.40497,-1.27101 -2.21658,-1.08887 -0.62571,0.14043 -6.80272,6.25076 -54.87449,54.282087 -24.77492,24.75408 -45.045315,45.16223 -45.045315,45.35145 0,0.51318 1.60258,1.39246 2.53999,1.39359 0.48344,5.8e-4 1.24386,-0.30735 1.85208,-0.75 z m -14.09341,-2.78543 c 1.22725,-0.51278 5.39601,-4.57824 43.568015,-42.48841 18.69942,-18.57116 35.54676,-35.24572 37.43854,-37.05457 5.49953,-5.25848 12.81173,-12.473097 17.56169,-17.327347 5.88157,-6.01069 6.24075,-6.36617 8.30381,-8.21832 2.02301,-1.81618 2.21674,-2.47356 1.11484,-3.78309 -0.70496,-0.83779 -1.96578,-1.28367 -2.59714,-0.91845 -0.20655,0.11948 -2.8007,2.72864 -5.76479,5.79813 -2.96409,3.06949 -10.33034,10.3402 -16.36946,16.15714 -6.03911,5.816937 -22.72102,22.296007 -37.07091,36.620147 -14.34989,14.32414 -31.405595,31.31782 -37.901565,37.76372 -6.85447,6.80164 -11.81086,11.91964 -11.81086,12.19597 0,0.78025 1.00561,1.46656 2.3236,1.58581 0.18658,0.0169 0.72848,-0.13195 1.20423,-0.33073 z m -11.52084,-4.49242 c 1.14128,-0.84201 3.25006,-2.85194 15.26905,-14.55328 10.6097,-10.3293 14.886485,-14.60418 37.362675,-37.346 7.19105,-7.27605 16.19234,-16.26221 20.00286,-19.96926 18.73274,-18.224057 33.75176,-33.258257 33.92862,-33.962917 0.21094,-0.84048 -0.52167,-2.46756 -1.19285,-2.64924 -0.22415,-0.0607 -0.10951,-0.12413 0.25475,-0.14101 0.36427,-0.0169 1.49498,0.20743 2.5127,0.49847 1.01772,0.29104 2.13158,0.52917 2.47524,0.52917 0.54649,0 0.60351,-0.0912 0.45474,-0.7276 -0.0935,-0.40019 -0.61248,-1.11592 -1.15316,-1.59053 -1.17365,-1.0302 -6.49779,-4.59268 -8.75477,-5.85797 -0.88302,-0.49503 -2.25816,-1.48176 -3.05586,-2.19274 l -1.45036,-1.292691 -0.91867,1.928161 c -0.50527,1.06049 -1.97547,3.59504 -3.2671,5.63233 -1.84206,2.90547 -2.62997,3.90384 -3.65417,4.63021 -2.05706,1.45889 -3.06647,2.64425 -4.48839,5.27078 -1.95998,3.62043 -2.2093,3.87231 -4.20593,4.24904 -2.10107,0.39645 -2.43041,0.7341 -4.65031,4.76767 -0.92101,1.67349 -2.47188,4.29287 -3.44637,5.82084 -0.97448,1.52796 -2.46193,3.95625 -3.30542,5.396187 -0.8435,1.43993 -1.84395,2.95605 -2.22322,3.36914 -0.39691,0.43231 -1.9219,1.28924 -3.59316,2.01908 l -2.90359,1.26801 -2.69308,4.02313 c -2.87395,4.29332 -5.61626,7.916 -6.9364,9.1632 l -0.80953,0.7648 -2.59253,-0.18843 c -3.47026,-0.25221 -4.96325,-0.58704 -6.66284,-1.49429 -0.78346,-0.41821 -1.53538,-0.69184 -1.67092,-0.60807 -0.13554,0.0838 -0.66505,1.03422 -1.17668,2.1121 -0.51163,1.07789 -2.14639,3.59614 -3.63281,5.59611 -1.48641,1.99997 -3.18549,4.29116 -3.77573,5.09152 -1.07082,1.45204 -3.834945,4.2309 -6.840235,6.8767 -0.87312,0.76869 -4.2664,4.03099 -7.54062,7.24955 -7.73501,7.60354 -15.57478,14.90534 -17.66986,16.45736 -1.32123,0.97875 -2.21754,1.38597 -4.36563,1.98346 -5.56694,1.54842 -9.45354,3.08343 -13.50602,5.33419 -4.1297,2.29365 -5.11718,3.28526 -4.07984,4.09688 0.95058,0.74374 1.59406,0.56632 6.06592,-1.67254 2.46165,-1.23243 5.36767,-2.59511 6.45784,-3.02817 1.09017,-0.43306 2.68861,-1.14402 3.5521,-1.5799 0.86349,-0.43589 1.6371,-0.79253 1.71913,-0.79253 0.4899,0 -0.9185,1.62832 -4.13949,4.78586 -3.16967,3.10722 -3.66748,3.70786 -3.66748,4.42497 0,0.65736 0.16765,0.91645 0.80697,1.24705 0.91368,0.47248 1.52272,0.35226 2.89719,-0.57191 2.03372,-1.36741 40.725855,-39.78199 42.471335,-42.16666 0.58522,-0.79952 1.32801,-1.81087 1.65065,-2.24743 0.32264,-0.43656 1.41875,-2.04391 2.4358,-3.57188 2.46076,-3.69696 2.8891,-4.23494 3.58142,-4.49816 0.7167,-0.27249 5.58721,0.12404 7.76565,0.63224 1.54528,0.36049 1.61119,0.35321 2.5444,-0.28093 1.31329,-0.8924 4.94065,-5.32445 6.44366,-7.87311 1.78133,-3.02062 5.28334,-6.60567 7.88751,-8.07456 3.24659,-1.83124 3.80849,-2.37353 5.46248,-5.27186 0.83691,-1.46654 2.31826,-3.770687 3.29189,-5.120337 0.97363,-1.34964 2.578,-3.81253 3.56527,-5.47307 0.98728,-1.66054 2.00451,-3.25142 2.26051,-3.53529 0.25601,-0.28386 1.51502,-1.04368 2.79779,-1.68849 1.95266,-0.98152 2.44796,-1.36435 3.04271,-2.35179 2.59539,-4.309 3.15728,-5.0371 4.69623,-6.08542 1.25781,-0.85681 1.95649,-1.64682 3.50994,-3.96875 1.06675,-1.59445 2.41145,-3.70267 2.98824,-4.68494 0.57678,-0.98226 1.19227,-1.78477 1.36775,-1.78335 1.1895,0.01 7.16493,3.81791 7.26104,4.62762 0.0423,0.35679 -0.3024,0.79702 -1.05834,1.35143 -1.8121,1.32901 -11.61455,10.75646 -23.60878,22.70563 -6.14597,6.122877 -13.30411,13.223467 -15.90697,15.779087 -2.60286,2.55561 -6.34506,6.30608 -8.31601,8.33437 -4.53823,4.67027 -37.787135,37.72088 -50.477145,50.1761 -8.64183,8.48194 -9.58183,9.48677 -9.32452,9.96757 0.76128,1.42245 2.54654,1.75632 3.93073,0.73509 z m -14.46662,-20.82586 c 0.88129,-0.44488 2.67885,-1.16065 3.99457,-1.59061 5.15126,-1.68335 5.89658,-2.2724 19.92027,-15.74347 3.20146,-3.07531 6.4821,-6.17458 7.29031,-6.88728 2.70175,-2.38246 4.86652,-4.26136 6.49462,-5.63697 2.11804,-1.78957 4.42781,-4.62915 7.444925,-9.15259 0.38825,-0.58209 1.6417,-2.94572 2.78544,-5.25252 l 2.07955,-4.19419 0.84321,0.12737 c 0.46376,0.0701 2.03383,0.44383 3.48903,0.8306 3.5656,0.94769 7.11769,1.18152 8.71008,0.57339 0.65293,-0.24936 1.52773,-0.84129 1.94401,-1.31541 0.86514,-0.98534 3.53214,-5.71934 4.82644,-8.56709 0.87234,-1.91931 0.87666,-1.92362 2.354,-2.34789 0.81403,-0.23377 2.51708,-0.8376 3.78456,-1.34182 l 2.3045,-0.916777 1.50642,-2.95304 c 0.82854,-1.62417 2.21028,-4.06228 3.07055,-5.41803 2.43923,-3.8441 2.99488,-4.84595 4.17768,-7.53234 0.68837,-1.56344 1.31855,-2.6157 1.67514,-2.7971 0.31439,-0.15993 1.42488,-0.47928 2.46775,-0.70967 1.13039,-0.24972 1.95726,-0.57818 2.0475,-0.81333 0.0832,-0.21695 0.0454,-1.14271 -0.0841,-2.05724 -0.22494,-1.58833 -0.13443,-2.5111 0.49597,-5.05658 0.14416,-0.58208 0.26494,-2.07826 0.26841,-3.32484 0.004,-1.24658 0.1275,-2.92207 0.27562,-3.72332 0.14812,-0.80124 0.2886,-2.757873 0.31219,-4.348069 0.0381,-2.565954 -0.0626,-3.278272 -0.89481,-6.330849 -1.13483,-4.162641 -2.3354,-7.121793 -3.51759,-8.670053 -1.57854,-2.06735 -2.51909,-3.722601 -2.51909,-4.43326 0,-0.383124 0.36999,-1.255171 0.8222,-1.937884 0.65913,-0.995105 0.78977,-1.414141 0.6587,-2.112793 -0.20503,-1.092919 -1.40477,-2.239068 -3.48168,-3.326155 -1.24822,-0.653341 -1.82028,-1.168089 -2.57968,-2.321227 -0.53669,-0.814946 -0.97579,-1.643727 -0.97579,-1.841736 0,-0.496665 0.89925,-0.453545 3.48896,0.167297 2.7745,0.665142 3.3902,0.674905 3.3902,0.05376 0,-1.787857 -8.51288,-5.926717 -17.5051,-8.510762 -4.46774,-1.283874 -10.91271,-2.51366 -15.36932,-2.932674 -4.40773,-0.414419 -16.312025,-0.185402 -19.777665,0.380487 -17.40976,2.842763 -29.18622,8.26504 -42.06874,19.369865 -7.50024,6.465256 -12.35347,12.416349 -17.78132,21.80368 -4.62006,7.990283 -6.09142,11.383873 -7.97273,18.388543 -2.15116,8.00938 -3.07558,14.35983 -3.08118,21.16667 -0.006,7.607407 0.50221,11.667197 2.53115,20.209717 1.40923,5.93333 2.57016,9.10028 5.41998,14.7855 2.09327,4.17594 3.16142,5.94808 5.33458,8.85047 4.80567,6.4183 9.69527,11.21607 16.21097,15.90652 1.74625,1.25707 3.2677,2.28715 3.38099,2.28907 0.11329,0.002 0.92704,-0.3605 1.80834,-0.80537 z m 4.132,-25.23146 c -1.92918,-0.79333 -3.0458,-1.64413 -4.03927,-3.07771 -1.66288,-2.39954 -0.75302,-5.25342 2.23384,-7.00663 1.61114,-0.9457 2.1414,-1.54122 2.1414,-2.40495 0,-0.6608 -0.16801,-0.73468 -2.64584,-1.16344 -2.41456,-0.41782 -3.72878,-1.26202 -6.63182,-4.26003 -1.76285,-1.82053 -2.71583,-2.61358 -3.14065,-2.61358 -0.5834,0 -0.60339,0.0661 -0.46043,1.52135 0.0822,0.83675 0.22959,2.07394 0.32754,2.74931 0.13282,0.91576 0.0354,1.6557 -0.38303,2.91042 -1.09707,3.28938 -1.98743,4.15974 -4.48718,4.38641 -1.32257,0.11992 -1.80616,0.0319 -3.11831,-0.56766 -1.98027,-0.90483 -6.11633,-4.04439 -7.45263,-5.65708 -2.20894,-2.6658 -2.83735,-4.29592 -3.06133,-7.94119 l -0.13527,-2.20157 -1.21763,-1.0718 c -1.49311,-1.31429 -2.03056,-2.33999 -2.74605,-5.24069 -1.48177,-6.007267 -1.39188,-15.395297 0.21609,-22.570387 0.43295,-1.93191 2.51916,-7.57172 3.72173,-10.06123 1.14065,-2.3613 2.6653,-4.32446 3.1337,-4.03497 0.15621,0.0965 0.19679,1.74678 0.10487,4.26531 -0.17212,4.71573 -0.0271,5.26235 1.50596,5.67515 1.21765,0.32788 2.63748,-0.059 3.22966,-0.87997 0.26682,-0.3699 0.5605,-1.64201 0.7472,-3.23656 0.16918,-1.44492 0.58602,-3.93681 0.92631,-5.53754 0.3403,-1.60073 0.70402,-3.62479 0.80828,-4.497918 0.33553,-2.80996 1.17364,-3.872985 4.70382,-5.966168 0.92533,-0.548665 2.45322,-1.905879 3.8288,-3.401094 2.65266,-2.883373 4.22116,-3.969363 7.41238,-5.132172 1.87178,-0.682031 2.66994,-0.832825 4.28466,-0.809476 4.33892,0.06274 8.50269,2.786884 8.91271,5.831136 l 0.13619,1.011107 -1.87731,-0.08781 c -1.77087,-0.08283 -1.92057,-0.04454 -2.64033,0.675219 -0.55545,0.555447 -0.81396,1.133352 -0.95025,2.124292 -0.1564,1.13713 -0.47137,1.722987 -1.91294,3.558115 -0.94915,1.208265 -2.3676,2.872619 -3.15211,3.698559 -1.53377,1.61478 -1.72927,2.29644 -0.89721,3.1285 0.69477,0.69477 0.79081,0.67941 2.11679,-0.33851 1.2401,-0.952 0.80529,-0.93349 5.61984,-0.23924 l 1.25434,0.18087 -1.07964,2.21223 c -1.55921,3.19486 -3.99371,5.58298 -7.51446,7.37127 -3.50715,1.78138 -4.99466,2.19173 -7.91937,2.18465 -2.47111,-0.006 -4.10684,-0.48046 -5.26279,-1.52658 -0.46222,-0.41831 -0.51434,-0.41396 -0.87006,0.0725 -0.68621,0.93844 -0.96322,2.57989 -0.79016,4.68212 l 0.16724,2.03163 -1.19524,1.12027 c -1.32956,1.24616 -1.49532,1.9801 -0.70239,3.11 0.87883,1.25232 2.93734,4.74419 3.19266,5.41574 0.1367,0.35955 0.18132,0.91083 0.0991,1.22505 l -0.1494,0.57131 -0.65179,-0.60906 c -0.35848,-0.33499 -1.10692,-1.38297 -1.6632,-2.32886 -1.15656,-1.96658 -1.99662,-2.83091 -4.69835,-4.83408 -2.38964,-1.77178 -3.11154,-2.73566 -3.81048,-5.08779 -0.72148,-2.42795 -0.92159,-2.62994 -2.25089,-2.272 -1.98575,0.53471 -2.62173,1.84463 -2.90151,5.97616 -0.21031,3.10571 0.0512,3.48446 2.66056,3.85286 2.12402,0.29988 3.16851,0.87311 4.64288,2.54808 1.93062,2.1933 2.4544,3.6501 2.63227,7.321137 0.14944,3.08432 0.19509,3.28608 1.04169,4.60428 1.12361,1.74953 3.59956,4.03093 4.37467,4.03093 1.02056,0 1.22222,-0.49257 1.22222,-2.98538 0,-1.76132 0.0829,-2.3234 0.33073,-2.24275 0.1819,0.0592 1.04041,1.05138 1.9078,2.20486 1.96469,2.61269 6.66397,7.27133 8.64111,8.56638 1.89379,1.24045 5.40363,2.3326 6.09956,1.89799 0.41278,-0.25779 0.4833,-0.21727 0.4833,0.27771 0,0.31874 0.25155,1.51177 0.55899,2.65117 0.63321,2.34673 0.4637,2.93496 -0.7805,2.70849 -0.38749,-0.0705 -0.88312,2.2e-4 -1.1014,0.15722 -0.34529,0.24835 -0.332,0.32666 0.10226,0.60249 0.27452,0.17437 0.9338,0.74736 1.46505,1.27331 1.26454,1.25193 2.45528,1.84727 3.81265,1.90624 l 1.10233,0.0479 0.0824,-1.14654 c 0.0646,-0.89845 0.16947,-1.11314 0.48466,-0.99218 0.22123,0.0849 0.50692,0.15434 0.63488,0.15434 0.12795,0 0.91464,0.5555 1.74819,1.23443 0.83354,0.67893 3.01107,2.06165 4.83894,3.07269 3.99317,2.20874 4.69687,2.69145 4.91207,3.36951 0.40568,1.27816 -2.07728,3.52308 -4.25839,3.85016 -2.16026,0.32395 -4.87091,-1.66875 -4.87091,-3.58079 0,-0.42554 0.36866,-1.1377 0.92604,-1.78887 1.15959,-1.35471 1.18964,-2.18412 0.11199,-3.0909 -0.94812,-0.7978 -1.02484,-0.80814 -2.23715,-0.3016 -0.85192,0.35595 -0.91754,0.4675 -0.91754,1.55963 0,2.78362 -1.90533,6.51558 -3.78086,7.40558 -1.32955,0.63092 -3.46301,0.55047 -5.28636,-0.19933 z m -25.74802,-3.44667 c -1.54935,-0.93672 -2.55774,-2.50939 -2.68981,-4.19499 -0.073,-0.9317 0.0156,-1.53975 0.27463,-1.88512 0.34352,-0.45801 0.46775,-0.47445 1.22256,-0.1618 1.22419,0.50707 3.6812,3.32441 3.89551,4.46679 0.20876,1.11277 -0.32514,2.25617 -1.1017,2.35942 -0.28618,0.038 -1.00672,-0.22489 -1.60119,-0.5843 z m 41.52283,-7.56192 c -0.85152,-0.44055 -1.89059,-1.17354 -2.30904,-1.62885 l -0.76082,-0.82785 0.69467,-0.36397 c 1.23671,-0.64798 0.72541,-1.75593 -0.95589,-2.07134 -2.42431,-0.45481 -4.02304,-2.37158 -4.30297,-5.159 -0.10219,-1.01755 -0.29949,-1.92035 -0.43846,-2.00624 -0.5146,-0.31804 -1.47408,0.17875 -3.26896,1.69256 l -1.84271,1.55417 -0.73396,-0.92357 c -1.4406,-1.81276 -2.43793,-4.24534 -2.43793,-5.94634 0,-1.42213 0.0754,-1.62893 0.84513,-2.31664 1.34973,-1.20599 2.71287,-1.44557 5.31595,-0.93431 2.89013,0.56764 4.36813,1.29296 5.55634,2.72672 0.53557,0.64625 1.31026,1.35136 1.72153,1.56692 0.67034,0.35135 0.81741,0.3463 1.42046,-0.0488 0.5937,-0.38901 0.65733,-0.57715 0.54181,-1.60208 -0.15955,-1.41553 -1.72904,-3.92113 -3.62485,-5.78685 -1.83816,-1.80899 -1.72752,-2.788067 0.31507,-2.788067 1.22047,0 2.94249,0.836157 5.16919,2.509997 1.94081,1.45893 2.44201,2.0998 2.44201,3.12251 0,1.23626 0.43884,1.77582 1.44434,1.77582 0.87709,0 0.90135,-0.0302 1.11765,-1.38906 0.20851,-1.3099 0.26536,-1.38906 0.99754,-1.38906 1.22278,0 1.66501,1.05664 1.99697,4.77145 0.1556,1.74133 0.45733,4.2079 0.6705,5.48127 0.82073,4.90261 0.52572,5.53371 -4.28056,9.15726 -2.52559,1.90408 -3.04732,1.98524 -5.29301,0.82339 z m 38.791845,-20.31812 c -1.57768,-0.69923 -2.52816,-2.43204 -2.06415,-3.76311 0.4331,-1.242387 1.69942,-2.225527 2.86655,-2.225527 2.89495,0 4.09776,3.219417 1.99022,5.326957 -0.87021,0.87021 -1.81633,1.09438 -2.79262,0.66168 z M 69.112085,94.985613 c -0.43657,-0.26919 -1.30222,-1.09668 -1.92367,-1.83887 -0.88235,-1.05377 -1.47561,-1.47548 -2.70771,-1.92473 -1.72099,-0.6275 -2.25789,-1.07771 -2.02111,-1.69475 0.11675,-0.30426 0.5955,-0.40025 1.99615,-0.40025 2.21982,0 2.0984,0.22506 2.39209,-4.43344 0.20425,-3.23971 0.2625,-3.48575 1.48719,-6.28218 1.593,-3.63742 1.99651,-4.22545 3.55931,-5.18706 1.41712,-0.87196 1.85973,-1.69893 3.02978,-5.66085 0.38678,-1.30969 1.06571,-3.37914 1.50873,-4.598784 1.39918,-3.851905 1.30464,-6.302535 -0.35044,-9.084363 -1.3448,-2.260315 -1.28176,-4.968191 0.18346,-7.880399 1.10488,-2.196006 2.12686,-2.818405 7.10158,-4.324958 2.56423,-0.776555 4.12395,-1.39912 4.68232,-1.868954 0.78387,-0.659589 0.87742,-0.678592 1.46698,-0.298009 0.34634,0.223578 0.8976,0.576859 1.22502,0.785069 0.32742,0.208211 1.41416,0.684835 2.41497,1.059166 2.13622,0.799007 4.49651,2.423476 7.382665,5.081111 1.9004,1.749933 2.20103,1.929559 3.50139,2.092027 1.51375,0.189131 5.5477,0.08113 5.78367,-0.154842 0.0775,-0.07751 -0.21068,-0.837971 -0.64041,-1.689925 -0.93682,-1.85726 -1.03409,-3.198703 -0.24687,-3.404566 0.38969,-0.101907 0.63338,0.05099 0.89965,0.564453 0.43638,0.841508 2.03362,2.521047 3.00306,3.157791 0.55967,0.3676 1.55098,0.486275 5.07449,0.607494 2.70885,0.09319 4.68169,0.282943 5.17271,0.497521 l 0.79375,0.346874 -0.84498,0.233782 c -0.46474,0.12858 -1.26841,0.633129 -1.78594,1.121219 -1.22698,1.157189 -1.22049,1.983725 0.0344,4.386171 0.85228,1.631613 0.97752,2.108183 0.99219,3.77559 0.0159,1.811518 -0.0189,1.925589 -0.68706,2.249723 -0.38712,0.187795 -1.90803,0.539111 -3.3798,0.780701 -3.19569,0.524569 -3.08458,0.338513 -2.83298,4.743808 0.19428,3.4016 0.64535,4.82967 2.29085,7.25279 1.29004,1.89966 1.32559,2.48097 0.194,3.1728 -1.0098,0.61738 -4.24282,1.97055 -5.30152,2.21893 l -0.73746,0.17301 0.0644,-2.5872 c 0.0977,-3.92874 0.2351,-3.81646 -4.41098,-3.60535 l -3.81801,0.17348 -1.79481,-0.87718 c -3.441605,-1.68201 -7.837285,-7.2847 -7.867305,-10.02759 l -0.0129,-1.179948 2.59177,-1.869682 c 2.93881,-2.120032 3.892025,-3.290632 4.086815,-5.018871 0.12473,-1.106547 0.0799,-1.222474 -0.59029,-1.527849 -0.794485,-0.361991 -0.723025,-0.419496 -3.019755,2.429998 -2.15022,2.667718 -5.82318,4.495999 -9.03231,4.495999 -1.67898,0 -3.13418,0.41051 -2.74442,0.774196 0.13284,0.123951 1.07496,0.502204 2.09361,0.840562 1.01864,0.338357 2.13623,0.898214 2.48353,1.244125 0.60431,0.601895 0.62365,0.732333 0.44987,3.03438 -0.25604,3.39168 -0.60666,4.78002 -1.56719,6.20546 -1.28564,1.90792 -1.9065,2.14663 -7.43459,2.85846 -2.69135,0.34655 -5.23084,0.80461 -5.6433,1.0179 -0.50248,0.25984 -1.2001,1.20213 -2.11432,2.85584 -2.4549,4.44064 -2.55898,5.06099 -1.08581,6.47237 0.89762,0.85997 1.28931,0.89213 6.25016,0.51318 3.61305,-0.276 4.03144,-0.0716 4.03144,1.9697 0,2.20437 -1.32733,2.97533 -4.90832,2.85093 -2.3895,-0.083 -3.16535,0.46608 -4.52889,3.20516 -0.60655,1.21845 -1.2614,2.31589 -1.45521,2.43875 -0.59643,0.37809 -1.89989,0.25415 -2.73362,-0.25992 z m 17.64522,-29.11211 c 1.76643,-1.97698 -0.004,-4.413624 -2.82265,-3.88484 -1.17435,0.220309 -2.78403,1.71398 -2.78403,2.58337 0,1.27811 1.75713,2.38444 3.55616,2.23904 1.06007,-0.0857 1.44773,-0.26293 2.05052,-0.93757 z m 36.273315,19.31302 c -1.76169,-1.13863 -3.66715,-3.52334 -3.92853,-4.91659 -0.15313,-0.81627 0.13956,-2.41603 0.7097,-3.87894 0.19611,-0.50317 0.78711,-0.93498 2.12151,-1.55005 1.6736,-0.77141 2.15657,-0.86559 5.07361,-0.98935 l 3.22393,-0.13679 0.45069,1.28996 c 0.60851,1.74167 2.70863,4.04899 4.41123,4.84644 0.74568,0.34926 1.35579,0.71527 1.35579,0.81337 0,0.4319 -1.16457,1.15835 -2.82059,1.75945 -0.98582,0.35783 -2.38407,1.07568 -3.10722,1.59521 -1.81675,1.3052 -3.8142,2.19171 -4.94524,2.19478 -0.65905,0.002 -1.44061,-0.31376 -2.54488,-1.02749 z m 18.30023,-10.09545 -0.74638,-0.77906 0.33835,-1.70223 c 0.39953,-2.01002 0.20285,-3.19689 -0.61898,-3.73538 -0.52704,-0.34533 -0.72885,-0.34428 -1.73006,0.009 -0.62339,0.21995 -1.6391,0.3999 -2.25715,0.3999 -0.97222,0 -1.36612,-0.19869 -2.92177,-1.47383 -0.98893,-0.81061 -2.71673,-2.00373 -3.83956,-2.65138 -2.4371,-1.40571 -3.30553,-2.220207 -3.52217,-3.303413 -0.0887,-0.443589 -0.23792,-2.257601 -0.33157,-4.031138 -0.15063,-2.852751 -0.10239,-3.465564 0.41831,-5.31404 0.4582,-1.626593 0.52574,-2.227331 0.30492,-2.711979 -0.2661,-0.584026 -0.23054,-0.622551 0.57458,-0.622551 0.47202,0 2.44235,0.357187 4.37852,0.79375 1.9416,0.437789 4.2886,0.79375 5.23354,0.79375 2.20125,0 2.83412,-0.553514 3.2916,-2.878869 0.56934,-2.893898 1.37317,-2.054508 3.3086,3.454974 0.78329,2.229756 1.42751,4.247245 1.43158,4.483308 0.005,0.298383 -0.3163,0.480969 -1.05464,0.599034 -0.58413,0.09341 -1.31232,0.4201 -1.61821,0.725986 -0.79071,0.790712 -0.57898,2.742496 0.45799,4.221897 1.85396,2.644961 2.14733,3.193351 2.46309,4.604341 0.23717,1.05979 0.27891,2.49603 0.14364,4.94202 -0.21238,3.84012 -0.51544,4.52307 -2.13417,4.80934 -0.67162,0.11878 -0.96145,0.002 -1.57006,-0.63339 z M 124.71871,43.236098 c -2.82331,-1.160866 -5.9203,-3.522675 -6.65817,-5.077627 -1.47094,-3.099786 1.55008,-6.966197 5.44815,-6.972737 2.46508,-0.0041 5.49717,1.296899 7.16957,3.07638 1.81545,1.931692 2.42291,5.714654 1.20622,7.511781 -1.39063,2.054062 -4.28829,2.64534 -7.16577,1.462203 z M 67.127705,40.515831 c -0.21828,-0.08285 -0.91107,-0.501522 -1.53953,-0.930374 -1.36938,-0.934437 -1.36045,-0.950717 1.7452,-3.179082 4.58834,-3.292225 12.88409,-7.587602 14.67714,-7.599532 2.53069,-0.01684 -1.72568,4.485769 -8.6651,9.166394 -3.77108,2.543584 -4.94759,3.024696 -6.21771,2.542594 z m 23.01875,-3.96875 c -0.92192,-0.349936 -2.54729,-1.661719 -2.97903,-2.40427 -0.46153,-0.793804 -0.45949,-0.805322 0.24079,-1.356164 0.38846,-0.305559 1.53205,-0.806379 2.54131,-1.112933 2.03267,-0.617405 4.30988,-0.53898 5.4172,0.186563 2.32835,1.525595 -2.38947,5.761301 -5.22027,4.686804 z M 165.56137,158.04647 c 2.80762,-1.45188 1.5377,-6.21323 -1.65716,-6.21323 -3.23163,0 -4.79134,3.6297 -2.47275,5.75453 0.77218,0.70765 1.15247,0.86005 2.14613,0.86005 0.66421,0 1.55691,-0.18061 1.98378,-0.40135 z m 12.42676,-11.7362 c 1.37509,-1.00029 1.72619,-2.94052 0.80539,-4.45068 -0.71884,-1.17892 -1.71348,-1.75621 -3.02588,-1.75621 -3.81031,0 -5.00355,4.73859 -1.62459,6.45153 1.23901,0.62811 2.7801,0.53006 3.84508,-0.24464 z M 156.38595,66.253173 c 1.86463,-1.72808 -0.28138,-4.350022 -2.63987,-3.225335 -2.32577,1.109085 -1.53825,3.829295 1.11852,3.863565 0.51597,0.007 1.08151,-0.23059 1.52135,-0.63823 z m 6.67557,-11.057307 c 1.13666,-1.240305 1.3789,-2.504596 0.73254,-3.82314 -0.96742,-1.973491 -3.24133,-2.73771 -5.2748,-1.772766 -2.45058,1.162877 -2.62158,4.755004 -0.29589,6.21583 0.66586,0.418243 1.18068,0.510581 2.40675,0.431664 1.39323,-0.08968 1.65274,-0.201916 2.4314,-1.051588 z m -8.95204,-11.205039 c 1.33468,-1.493717 0.26771,-3.784505 -1.77146,-3.803328 -1.79421,-0.01656 -3.0529,2.146805 -2.03153,3.491685 0.54936,0.723361 1.8227,1.285983 2.54622,1.125036 0.3638,-0.08093 0.92935,-0.446955 1.25677,-0.813393 z M 38.119875,189.09462 c -0.59932,-0.2902 -1.15467,-1.26433 -1.15467,-2.02538 0,-0.89545 0.77538,-1.63392 1.71559,-1.63392 1.8078,0 2.58167,2.3293 1.16472,3.50573 -0.6276,0.52107 -0.91402,0.54656 -1.72564,0.15357 z m 134.744555,-0.76809 c -0.78903,-0.62065 -0.89041,-1.4392 -0.28526,-2.30317 0.51424,-0.73417 1.53184,-0.76099 2.23396,-0.0589 0.70784,0.70784 0.66711,1.4736 -0.12027,2.26098 -0.78961,0.78961 -0.94234,0.79806 -1.82843,0.10106 z M 21.198345,183.17244 c -2.31815,-0.85458 -3.80068,-3.11968 -3.80068,-5.80691 0,-3.5598 2.15045,-5.69201 5.73457,-5.68596 1.81568,0.003 3.92037,0.8764 4.79659,1.99034 0.31855,0.40496 0.77002,1.39278 1.00328,2.19516 0.52765,1.81506 0.18564,3.70965 -0.95356,5.28227 -1.38417,1.91079 -4.53637,2.85229 -6.7802,2.0251 z M 191.4662,170.69715 c -1.59207,-1.33963 -1.86253,-3.00931 -0.74636,-4.60761 0.6687,-0.95755 1.84541,-1.38754 3.33702,-1.21941 2.32507,0.26207 3.67195,2.64835 2.64278,4.68225 -0.93258,1.84302 -3.68746,2.44563 -5.23344,1.14477 z m 3.27412,-126.810049 c -1.22508,-0.505668 -1.58739,-2.865349 -0.6023,-3.92271 1.14963,-1.233984 3.30177,-0.302274 3.59761,1.557484 0.25702,1.615788 -1.48273,2.98957 -2.99531,2.365226 z M 19.011505,36.598551 c -0.43801,-0.368565 -0.93263,-1.08294 -1.09915,-1.5875 -0.64173,-1.944443 0.91433,-4.092383 2.9647,-4.092383 0.88918,0 1.24208,0.172921 2.09636,1.027206 0.90291,0.902903 1.02721,1.178252 1.02721,2.275416 0,1.066756 -0.13077,1.378985 -0.89958,2.147794 -0.75789,0.757884 -1.0881,0.899584 -2.09637,0.899584 -0.89468,0 -1.39782,-0.169159 -1.99317,-0.670117 z M 184.80061,30.554318 c -1.47715,-0.546703 -2.74213,-1.617473 -3.56544,-3.018053 -0.62576,-1.064517 -0.7334,-1.539288 -0.73284,-3.23218 5.4e-4,-1.591524 0.13149,-2.241982 0.66146,-3.285601 2.31035,-4.549513 9.33486,-4.247292 11.54393,0.496664 1.01146,2.172082 0.67397,4.943046 -0.84451,6.933872 -1.35826,1.780773 -5.0035,2.867385 -7.0626,2.105298 z"
       id="path6" /></g></svg>
